<svg xmlns="http://www.w3.org/2000/svg" viewBox="0 0 24 24">
  <path d="M10.29,23 C17.837,23 21.965,16.844 21.965,11.505 
    C21.965,11.33 21.965,11.156 21.953,10.983 
    C22.756,10.412 23.449,9.703 24,8.892 
    C23.252,9.218 22.457,9.433 21.644,9.528 
    C22.5,9.022 23.141,8.229 23.448,7.293 
    C22.642,7.763 21.761,8.095 20.842,8.273 
    C19.288,6.647 16.689,6.568 15.036,8.098 
    C13.971,9.084 13.518,10.555 13.849,11.958 
    C10.55,11.795 7.476,10.261 5.392,7.738 
    C4.303,9.584 4.86,11.945 6.663,13.13 
    C6.01,13.111 5.371,12.938 4.8,12.625 
    C4.801,14.549 6.178,16.205 8.092,16.586 
    C7.488,16.798 6.854,16.822 6.24,16.705 
    C6.777,18.351 8.318,19.478 10.073,19.511 
    C8.62,20.635 6.825,21.246 4.977,21.244 
    C4.651,21.243 4.325,21.224 4,21.185 
    C5.877,22.371 8.06,23 10.29,23"/>
</svg>